# xmcd
#
# Track frame offsets: 
#        150
#        21452
#        43814
#        69937
#        97202
#        120749
#        149587
#        179101
#        204821
#        232192
#
# Disc length: 3355 seconds
#
# Revision: 0
# Processed by: cddbd v1.5.2PL0 Copyright (c) Steve Scherf et al.
# Submitted via: ExactAudioCopy v1.0b3
#
DISCID=9c0d190a
DTITLE=Randy, Nhat Quang - Tinh Ban Quang Trung
DYEAR=1999
DGENRE=
TTITLE0=Randy - Tinh ban Quang Trung
TTITLE1=Nhat Quang - Rong reu
TTITLE2=Randy - Chung minh ba dua
TTITLE3=Nhat Quang - Pho nho tinh nguoi
TTITLE4=Randy - Hanh trang gia tu
TTITLE5=Nhat Quang - Tieng ca u hoai
TTITLE6=Randy - Thuong ve quan tro
TTITLE7=Nhat Quang - Duoc tin em lay chong
TTITLE8=Randy - Tam su nguoi linh tre
TTITLE9=Nhat Quang - Nguoi ban tinh xua
EXTD=
EXTT0=
EXTT1=
EXTT2=
EXTT3=
EXTT4=
EXTT5=
EXTT6=
EXTT7=
EXTT8=
EXTT9=
PLAYORDER=
